<svg width="128" height="128" viewBox="0 0 128 128" fill="none" xmlns="http://www.w3.org/2000/svg">
<g clip-path="url(#clip0_1_26)">
<rect width="128" height="128" rx="30" fill="black"/>
<path d="M47.8581 115.5C49.4501 114.797 50.5652 113.173 50.5652 111.282V98.877C50.5652 98.4245 50.601 97.9535 50.657 97.4757C50.6257 97.4849 50.5966 97.4918 50.5652 97.4987C50.5652 97.4987 43.8478 97.4987 42.5043 97.4987C39.1457 97.4987 36.2348 96.1203 34.8913 93.3636C33.3239 90.3772 32.6522 85.3232 28.6217 82.5665C27.95 82.107 28.3978 81.4178 29.7413 81.4178C31.0848 81.6476 33.9957 83.4854 35.787 86.0124C37.8022 88.5393 39.8174 90.6069 43.4 90.6069C48.9687 90.6069 51.9535 90.3197 53.7493 89.3319C55.8406 86.141 58.7358 83.7151 61.7609 83.7151V83.6577C49.0695 83.2396 40.9616 78.9115 37.1864 72.2288C28.98 72.3253 21.8349 73.1592 17.7575 73.853C17.6276 73.1018 17.5157 72.346 17.4194 71.5856C21.4431 70.9056 28.2635 70.0992 36.1049 69.9453C35.8541 69.3113 35.6369 68.6611 35.4533 67.9949C27.5917 67.586 20.8072 67.9053 17.1216 68.2178C17.0768 67.4551 17.0163 66.6947 17.0074 65.9228C20.6997 65.6127 27.3007 65.3025 34.9607 65.6678C34.7838 64.5192 34.6696 63.3453 34.6696 62.1231C34.6696 58.2178 36.0131 54.0827 38.4762 50.6368C37.3566 46.7315 35.7892 38.4614 38.924 35.4749C44.9696 35.4749 49.224 38.4613 51.2392 40.2992C55.0435 38.6888 59.2978 37.7699 64 37.7699C68.7022 37.7699 72.9565 38.6888 76.5391 40.2969C78.5544 38.4591 82.8087 35.4726 88.8543 35.4726C92.213 38.6888 90.4217 46.9589 89.3022 50.6345C91.7652 54.0804 93.1087 57.9858 92.8848 62.1208C92.8848 63.2327 92.784 64.3055 92.6385 65.3577C100.473 64.9626 107.253 65.2796 111.008 65.592C111.004 66.3662 110.934 67.122 110.894 67.887C107.153 67.5699 100.202 67.2437 92.1772 67.6825C91.9779 68.4544 91.7361 69.2056 91.4495 69.9338C99.3895 70.0395 106.373 70.8275 110.59 71.5166C110.493 72.2793 110.381 73.0351 110.251 73.784C105.97 73.0811 98.6729 72.2587 90.3702 72.2173C86.6421 78.8288 78.682 83.1408 66.2391 83.6439V83.7151C72.0609 83.7151 77.4348 92.6744 77.4348 98.877V111.282C77.4348 113.173 78.5499 114.797 80.1419 115.5C100.655 108.535 115.5 88.6864 115.5 65.337C115.5 36.2031 92.3989 12.5 64 12.5C35.6011 12.5 12.5 36.2031 12.5 65.337C12.5 88.6864 27.3454 108.535 47.8581 115.5Z" fill="white"/>
</g>
<defs>
<clipPath id="clip0_1_26">
<rect width="128" height="128" fill="white"/>
</clipPath>
</defs>
</svg>
