<svg width="128" height="128" viewBox="0 0 128 128" fill="none" xmlns="http://www.w3.org/2000/svg">
<g clip-path="url(#clip0_1_26)">
<rect width="128" height="128" rx="30" fill="black"/>
<mask id="mask0_1_26" style="mask-type:luminance" maskUnits="userSpaceOnUse" x="16" y="15" width="96" height="98">
<path d="M111.883 15H16.1172V113H111.883V15Z" fill="white"/>
</mask>
<g mask="url(#mask0_1_26)">
<path d="M111.832 64.9168C111.832 60.9018 111.506 57.9719 110.801 54.9335H64.9538V73.0553H91.8653C91.3229 77.5588 88.393 84.341 81.882 88.8984L81.7907 89.5051L96.2869 100.735L97.2912 100.835C106.515 92.3168 111.832 79.7832 111.832 64.9168Z" fill="#4285F4"/>
<path d="M64.9538 112.663C78.1382 112.663 89.2066 108.323 97.2912 100.835L81.882 88.8983C77.7585 91.774 72.2241 93.7815 64.9538 93.7815C52.0406 93.7815 41.0807 85.2634 37.1738 73.4895L36.6011 73.5382L21.5279 85.2035L21.3307 85.7515C29.3607 101.703 45.855 112.663 64.9538 112.663Z" fill="#34A853"/>
<path d="M37.1738 73.4896C36.1429 70.4512 35.5463 67.1955 35.5463 63.8317C35.5463 60.4675 36.1429 57.2122 37.1196 54.1738L37.0923 53.5267L21.8301 41.674L21.3307 41.9115C18.0212 48.531 16.1221 55.9644 16.1221 63.8317C16.1221 71.699 18.0212 79.132 21.3307 85.7515L37.1738 73.4896Z" fill="#FBBC05"/>
<path d="M64.9538 33.8814C74.1232 33.8814 80.3084 37.8422 83.8353 41.1521L97.6166 27.6962C89.1527 19.8289 78.1382 15 64.9538 15C45.855 15 29.3607 25.9599 21.3307 41.9115L37.1196 54.1738C41.0807 42.4 52.0406 33.8814 64.9538 33.8814Z" fill="#EB4335"/>
</g>
</g>
<defs>
<clipPath id="clip0_1_26">
<rect width="128" height="128" fill="white"/>
</clipPath>
</defs>
</svg>
