<svg width="128" height="128" viewBox="0 0 128 128" fill="none" xmlns="http://www.w3.org/2000/svg">
<g clip-path="url(#clip0_1_26)">
<rect width="128" height="128" rx="30" fill="black"/>
<path d="M35.5683 44.7895H35.6632C40.755 44.7895 43.925 40.9474 43.925 36.1447C43.8301 31.2364 40.755 27.5 35.76 27.5C30.7649 27.5 27.5 31.2364 27.5 36.1447C27.5 40.9474 30.6682 44.7895 35.5683 44.7895ZM27.5 50.5526H43.925V100.5H27.5V50.5526ZM100.5 68.8026C100.5 58.7229 92.7383 50.5526 83.1625 50.5526C77.5908 50.5526 72.6469 53.3305 69.475 57.6298V50.5526H53.05V100.5H69.475V71.6842C69.475 67.4406 72.7436 64 76.775 64C80.8064 64 84.075 67.4406 84.075 71.6842V100.5H100.5C100.5 100.5 100.5 71.5978 100.5 68.8026Z" fill="#0288D1"/>
</g>
<defs>
<clipPath id="clip0_1_26">
<rect width="128" height="128" fill="white"/>
</clipPath>
</defs>
</svg>
