<svg width="128" height="128" viewBox="0 0 128 128" fill="none" xmlns="http://www.w3.org/2000/svg">
<g clip-path="url(#clip0_1_26)">
<rect width="128" height="128" rx="30" fill="black"/>
<path d="M63.9936 13.5721C35.5591 13.5721 12.5 36.7213 12.5 65.2781C12.4884 76.1159 15.883 86.6833 22.2041 95.4869C28.5252 104.29 37.4531 110.885 47.726 114.338C50.301 114.815 51.2409 113.218 51.2409 111.847C51.2409 110.617 51.1958 107.366 51.1701 103.053C36.8466 106.176 33.821 96.1201 33.821 96.1201C31.4842 90.1461 28.1045 88.5561 28.1045 88.5561C23.4244 85.3502 28.4521 85.4146 28.4521 85.4146C33.6214 85.7815 36.3381 90.7448 36.3381 90.7448C40.9344 98.6436 48.3955 96.3648 51.331 95.0386C51.7945 91.6976 53.1271 89.4187 54.6012 88.1248C43.1682 86.8179 31.143 82.3825 31.143 62.5743C31.143 56.9286 33.1515 52.3129 36.4475 48.6951C35.9132 47.3883 34.1493 42.1288 36.9496 35.0154C36.9496 35.0154 41.2756 33.6249 51.1121 40.3134C55.3142 39.1651 59.6503 38.5806 64.0064 38.5753C68.3628 38.584 72.6987 39.1706 76.9007 40.3199C86.7308 33.6313 91.0504 35.0218 91.0504 35.0218C93.8571 42.1417 92.0932 47.3947 91.5654 48.7015C94.8678 52.3194 96.857 56.9351 96.857 62.5808C96.857 82.4404 84.8189 86.8115 73.3472 88.0926C75.1948 89.6891 76.8428 92.8434 76.8428 97.6651C76.8428 104.579 76.7784 110.154 76.7784 111.847C76.7784 113.231 77.7054 114.84 80.3191 114.332C90.582 110.87 99.4988 104.273 105.811 95.4719C112.123 86.6705 115.512 76.109 115.5 65.2781C115.5 36.7213 92.4409 13.5721 63.9936 13.5721Z" fill="white"/>
</g>
<defs>
<clipPath id="clip0_1_26">
<rect width="128" height="128" fill="white"/>
</clipPath>
</defs>
</svg>
