<svg width="128" height="128" viewBox="0 0 128 128" fill="none" xmlns="http://www.w3.org/2000/svg">
<rect width="128" height="128" rx="29" fill="white" fill-opacity="0.3"/>
<path d="M25.8927 97.1137H39.9732V62.9767L19.8349 47.9958V91.1377C19.8349 94.4122 22.5364 97.1137 25.8927 97.1137Z" fill="#4285F4"/>
<path d="M88.1087 97.1137H102.189C105.545 97.1137 108.247 94.4122 108.247 91.0558V47.9958L88.1905 63.0586V97.1137H88.1087Z" fill="#34A853"/>
<path d="M88.1087 36.9442V63.0586L108.165 47.9958V39.9732C108.165 32.5236 99.6514 28.2668 93.6753 32.7692L88.1087 36.9442Z" fill="#FBBC04"/>
<path fill-rule="evenodd" clip-rule="evenodd" d="M39.8913 62.9767V36.9442L63.9591 55.036L88.0268 36.9442V63.0586L64.0409 81.0684L39.8913 62.9767Z" fill="#EA4335"/>
<path d="M19.8349 39.8913V47.9139L39.8913 62.9767V36.9443L34.2428 32.6874C28.3486 28.2668 19.8349 32.5236 19.8349 39.8913Z" fill="#C5221F"/>
</svg>
