<svg width="128" height="128" viewBox="0 0 128 128" fill="none" xmlns="http://www.w3.org/2000/svg">
<g clip-path="url(#clip0_2_55)">
<path d="M32.458 127.547C27.5071 127.492 22.6027 126.584 17.9602 124.863C14.57 123.61 11.5027 121.615 8.98259 119.024C6.38465 116.509 4.38674 113.441 3.13725 110.047C1.41773 105.405 0.510974 100.501 0.456784 95.5507C0.076549 87.3211 0 84.8527 0 64C0 43.1473 0.0840784 40.6877 0.453019 32.4518C0.513785 27.5034 1.42166 22.602 3.13725 17.9602C4.39282 14.5694 6.3879 11.5009 8.97757 8.97757C11.4946 6.38197 14.5633 4.38591 17.9564 3.13725C22.5989 1.4163 27.5033 0.508271 32.4543 0.453019C40.6864 0.076549 43.1586 0 64 0C84.8414 0 87.3123 0.0840784 95.5482 0.453019C100.498 0.513356 105.401 1.42123 110.044 3.13725C113.435 4.38756 116.503 6.38292 119.021 8.97631C121.615 11.4952 123.612 14.5639 124.863 17.9564C126.584 22.5989 127.493 27.5032 127.548 32.4543C127.925 40.6902 128.001 43.1561 128.001 64.0025C128.001 84.8489 127.925 87.3148 127.548 95.5507C127.488 100.501 126.58 105.404 124.863 110.047C123.564 113.414 121.574 116.472 119.022 119.024C116.469 121.576 113.411 123.564 110.044 124.863C105.401 126.584 100.497 127.493 95.5457 127.548C87.3173 127.925 84.8439 128.001 63.9975 128.001C43.1511 128.001 40.6852 127.928 32.4568 127.548" fill="url(#paint0_radial_2_55)"/>
<path d="M32.458 127.547C27.5071 127.492 22.6027 126.584 17.9602 124.863C14.57 123.61 11.5027 121.615 8.98259 119.024C6.38465 116.509 4.38674 113.441 3.13725 110.047C1.41773 105.405 0.510974 100.501 0.456784 95.5507C0.076549 87.3211 0 84.8527 0 64C0 43.1473 0.0840784 40.6877 0.453019 32.4518C0.513785 27.5034 1.42166 22.602 3.13725 17.9602C4.39282 14.5694 6.3879 11.5009 8.97757 8.97757C11.4946 6.38197 14.5633 4.38591 17.9564 3.13725C22.5989 1.4163 27.5033 0.508271 32.4543 0.453019C40.6864 0.076549 43.1586 0 64 0C84.8414 0 87.3123 0.0840784 95.5482 0.453019C100.498 0.513356 105.401 1.42123 110.044 3.13725C113.435 4.38756 116.503 6.38292 119.021 8.97631C121.615 11.4952 123.612 14.5639 124.863 17.9564C126.584 22.5989 127.493 27.5032 127.548 32.4543C127.925 40.6902 128.001 43.1561 128.001 64.0025C128.001 84.8489 127.925 87.3148 127.548 95.5507C127.488 100.501 126.58 105.404 124.863 110.047C123.564 113.414 121.574 116.472 119.022 119.024C116.469 121.576 113.411 123.564 110.044 124.863C105.401 126.584 100.497 127.493 95.5457 127.548C87.3173 127.925 84.8439 128.001 63.9975 128.001C43.1511 128.001 40.6852 127.928 32.4568 127.548" fill="url(#paint1_radial_2_55)"/>
<path d="M48.2848 64.2723C48.2851 61.1373 49.215 58.0728 50.9569 55.4662C52.6989 52.8597 55.1746 50.8283 58.0711 49.6288C60.9676 48.4294 64.1548 48.1159 67.2295 48.7278C70.3042 49.3398 73.1284 50.8497 75.3449 53.0668C77.5614 55.2838 79.0707 58.1084 79.682 61.1833C80.2932 64.2581 79.9789 67.4452 78.7787 70.3414C77.5786 73.2376 75.5466 75.7129 72.9397 77.4542C70.3327 79.1955 67.268 80.1247 64.133 80.1242C59.9293 80.1236 55.8981 78.4531 52.926 75.4803C49.954 72.5076 48.2845 68.4759 48.2848 64.2723ZM39.7151 64.2723C39.7151 69.1017 41.1472 73.8227 43.8303 77.8382C46.5133 81.8537 50.3269 84.9834 54.7887 86.8315C59.2504 88.6796 64.1601 89.1632 68.8967 88.221C73.6333 87.2788 77.9841 84.9532 81.399 81.5383C84.8139 78.1234 87.1395 73.7726 88.0817 69.036C89.0238 64.2994 88.5403 59.3898 86.6921 54.928C84.844 50.4662 81.7143 46.6526 77.6988 43.9696C73.6833 41.2865 68.9624 39.8544 64.133 39.8544C60.9263 39.8543 57.7511 40.4857 54.7885 41.7128C51.8259 42.9399 49.134 44.7384 46.8666 47.0059C44.5991 49.2733 42.8005 51.9652 41.5735 54.9278C40.3464 57.8904 39.7149 61.0657 39.7151 64.2723ZM83.8111 38.8869C83.8106 40.0154 84.1448 41.1188 84.7713 42.0574C85.3979 42.9961 86.2887 43.7278 87.3312 44.1601C88.3737 44.5925 89.5209 44.706 90.6278 44.4863C91.7348 44.2666 92.7518 43.7236 93.5501 42.926C94.3485 42.1283 94.8924 41.1118 95.113 40.0051C95.3337 38.8983 95.2212 37.751 94.7898 36.7081C94.3583 35.6653 93.6274 34.7738 92.6893 34.1464C91.7512 33.519 90.6482 33.1839 89.5196 33.1834C88.0069 33.1841 86.5563 33.7851 85.4865 34.8545C84.4166 35.9239 83.8149 37.3742 83.8136 38.8869M44.9242 102.98C41.9088 102.947 38.9216 102.395 36.0934 101.348C34.0424 100.558 32.1796 99.3466 30.625 97.7926C29.0704 96.2386 27.8583 94.3763 27.0669 92.3256C26.0201 89.4976 25.4682 86.5103 25.4356 83.4949C25.2047 78.4828 25.1595 76.9769 25.1595 64.2786C25.1595 51.5802 25.2097 50.0781 25.4356 45.061C25.4722 42.046 26.0239 39.0594 27.0669 36.2303C27.8574 34.1786 29.0691 32.3153 30.6238 30.7606C32.1785 29.2059 34.0418 27.9943 36.0934 27.2038C38.9215 26.1569 41.9088 25.6051 44.9242 25.5724C49.9363 25.3415 51.4421 25.2963 64.1355 25.2963C76.8288 25.2963 78.3359 25.3453 83.353 25.5737C86.3681 25.6103 89.3547 26.162 92.1838 27.205C94.2354 27.9956 96.0986 29.2073 97.6533 30.762C99.208 32.3167 100.42 34.1799 101.21 36.2315C102.257 39.0596 102.809 42.0469 102.842 45.0623C103.073 50.0819 103.118 51.5802 103.118 64.2798C103.118 76.9794 103.071 78.4803 102.842 83.4974C102.807 86.5126 102.255 89.4994 101.21 92.3281C100.419 94.3788 99.2069 96.2411 97.6522 97.7951C96.0976 99.3491 94.2348 100.56 92.1838 101.351C89.3557 102.398 86.3684 102.95 83.353 102.982C78.341 103.213 76.8351 103.258 64.1355 103.258C51.4359 103.258 49.935 103.212 44.9242 102.982M44.5302 17.0102C40.5845 17.0878 36.6807 17.8346 32.9851 19.2188C29.8258 20.4403 26.9567 22.3085 24.5617 24.7035C22.1666 27.0986 20.2985 29.9677 19.077 33.1269C17.6929 36.8226 16.9461 40.7264 16.8684 44.672C16.6337 49.7418 16.581 51.3631 16.581 64.2773C16.581 77.1915 16.635 78.8116 16.8684 83.8827C16.9461 87.8283 17.6929 91.732 19.077 95.4277C20.2985 98.5869 22.1667 101.456 24.5618 103.851C26.9568 106.246 29.8259 108.114 32.9851 109.336C36.6809 110.719 40.5846 111.466 44.5302 111.544C49.6025 111.775 51.2213 111.832 64.1355 111.832C77.0497 111.832 78.6698 111.778 83.7408 111.544C87.6864 111.467 91.5901 110.72 95.2859 109.336C98.4451 108.114 101.314 106.246 103.709 103.851C106.104 101.456 107.972 98.5869 109.194 95.4277C110.58 91.7325 111.327 87.8285 111.403 83.8827C111.634 78.8091 111.686 77.1915 111.686 64.2773C111.686 51.3631 111.632 49.7431 111.403 44.672C111.325 40.7264 110.578 36.8226 109.194 33.1269C107.972 29.9683 106.105 27.0996 103.71 24.7046C101.316 22.3097 98.448 20.4411 95.2897 19.2188C91.5943 17.8337 87.6903 17.0869 83.7446 17.0102C78.6735 16.7781 77.0534 16.7228 64.1418 16.7228C51.2301 16.7228 49.6062 16.7768 44.5327 17.0102" fill="white"/>
</g>
<defs>
<radialGradient id="paint0_radial_2_55" cx="0" cy="0" r="1" gradientUnits="userSpaceOnUse" gradientTransform="translate(8.2836 125.197) scale(162.512)">
<stop offset="0.09" stop-color="#FA8F21"/>
<stop offset="0.78" stop-color="#D82D7E"/>
</radialGradient>
<radialGradient id="paint1_radial_2_55" cx="0" cy="0" r="1" gradientUnits="userSpaceOnUse" gradientTransform="translate(88.6613 121.085) scale(143.012)">
<stop offset="0.64" stop-color="#8C3AAA" stop-opacity="0"/>
<stop offset="1" stop-color="#8C3AAA"/>
</radialGradient>
<clipPath id="clip0_2_55">
<rect width="128" height="128" fill="white"/>
</clipPath>
</defs>
</svg>
