<svg width="128" height="128" viewBox="0 0 128 128" fill="none" xmlns="http://www.w3.org/2000/svg">
<rect width="128" height="128" rx="29" fill="white"/>
<g clip-path="url(#clip0_4_2)">
<path d="M111.715 64.9168C111.715 60.9018 111.389 57.9719 110.684 54.9335H64.8366V73.0553H91.7481C91.2057 77.5588 88.2758 84.341 81.7648 88.8984L81.6735 89.5051L96.1697 100.735L97.174 100.835C106.398 92.3168 111.715 79.7832 111.715 64.9168Z" fill="#4285F4"/>
<path d="M64.8366 112.663C78.021 112.663 89.0894 108.323 97.174 100.835L81.7648 88.8983C77.6413 91.774 72.1069 93.7815 64.8366 93.7815C51.9234 93.7815 40.9635 85.2634 37.0566 73.4895L36.4839 73.5382L21.4107 85.2035L21.2135 85.7515C29.2435 101.703 45.7378 112.663 64.8366 112.663Z" fill="#34A853"/>
<path d="M37.0566 73.4896C36.0257 70.4512 35.4291 67.1955 35.4291 63.8317C35.4291 60.4675 36.0257 57.2122 37.0024 54.1738L36.9751 53.5267L21.7129 41.674L21.2135 41.9115C17.904 48.531 16.0049 55.9644 16.0049 63.8317C16.0049 71.699 17.904 79.132 21.2135 85.7515L37.0566 73.4896Z" fill="#FBBC05"/>
<path d="M64.8366 33.8814C74.006 33.8814 80.1912 37.8422 83.7181 41.1521L97.4994 27.6962C89.0355 19.8289 78.021 15 64.8366 15C45.7378 15 29.2435 25.9599 21.2135 41.9115L37.0024 54.1738C40.9635 42.4 51.9234 33.8814 64.8366 33.8814Z" fill="#EB4335"/>
</g>
<defs>
<clipPath id="clip0_4_2">
<rect width="95.7656" height="98" fill="white" transform="translate(16 15)"/>
</clipPath>
</defs>
</svg>
