<svg width="128" height="128" viewBox="0 0 128 128" fill="none" xmlns="http://www.w3.org/2000/svg">
<rect width="128" height="128" rx="29" fill="white" fill-opacity="0.3"/>
<g clip-path="url(#clip0_2_55)">
<path d="M38.6257 115.628C34.5644 115.583 30.5413 114.838 26.7329 113.426C23.9519 112.398 21.4358 110.762 19.3685 108.637C17.2374 106.573 15.5985 104.057 14.5735 101.273C13.163 97.465 12.4192 93.4423 12.3747 89.3815C12.0628 82.6306 12 80.6057 12 63.5C12 46.3943 12.069 44.3766 12.3716 37.6206C12.4215 33.5614 13.1662 29.5407 14.5735 25.7329C15.6035 22.9515 17.2401 20.4343 19.3644 18.3644C21.4291 16.2352 23.9464 14.5978 26.7299 13.5735C30.5382 12.1618 34.5613 11.4169 38.6226 11.3716C45.3756 11.0628 47.4035 11 64.5 11C81.5965 11 83.6234 11.069 90.3794 11.3716C94.4397 11.4211 98.4614 12.1659 102.27 13.5735C105.052 14.5992 107.569 16.236 109.635 18.3634C111.763 20.4297 113.4 22.9469 114.426 25.7299C115.839 29.5381 116.584 33.5613 116.629 37.6226C116.938 44.3787 117.001 46.4015 117.001 63.5021C117.001 80.6026 116.938 82.6254 116.629 89.3815C116.58 93.4422 115.835 97.4644 114.426 101.273C113.361 104.035 111.729 106.544 109.635 108.637C107.541 110.73 105.033 112.362 102.27 113.426C98.4619 114.839 94.4387 115.584 90.3774 115.629C83.6275 115.938 81.5985 116.001 64.4979 116.001C47.3974 116.001 45.3746 115.941 38.6247 115.629" fill="url(#paint0_radial_2_55)"/>
<path d="M38.6257 115.628C34.5644 115.583 30.5413 114.838 26.7329 113.426C23.9519 112.398 21.4358 110.762 19.3685 108.637C17.2374 106.573 15.5985 104.057 14.5735 101.273C13.163 97.465 12.4192 93.4423 12.3747 89.3815C12.0628 82.6306 12 80.6057 12 63.5C12 46.3943 12.069 44.3766 12.3716 37.6206C12.4215 33.5614 13.1662 29.5407 14.5735 25.7329C15.6035 22.9515 17.2401 20.4343 19.3644 18.3644C21.4291 16.2352 23.9464 14.5978 26.7299 13.5735C30.5382 12.1618 34.5613 11.4169 38.6226 11.3716C45.3756 11.0628 47.4035 11 64.5 11C81.5965 11 83.6234 11.069 90.3794 11.3716C94.4397 11.4211 98.4614 12.1659 102.27 13.5735C105.052 14.5992 107.569 16.236 109.635 18.3634C111.763 20.4297 113.4 22.9469 114.426 25.7299C115.839 29.5381 116.584 33.5613 116.629 37.6226C116.938 44.3787 117.001 46.4015 117.001 63.5021C117.001 80.6026 116.938 82.6254 116.629 89.3815C116.58 93.4422 115.835 97.4644 114.426 101.273C113.361 104.035 111.729 106.544 109.635 108.637C107.541 110.73 105.033 112.362 102.27 113.426C98.4619 114.839 94.4387 115.584 90.3774 115.629C83.6275 115.938 81.5985 116.001 64.4979 116.001C47.3974 116.001 45.3746 115.941 38.6247 115.629" fill="url(#paint1_radial_2_55)"/>
<path d="M51.6087 63.7233C51.6089 61.1517 52.3717 58.6378 53.8006 56.4996C55.2296 54.3615 57.2605 52.6951 59.6365 51.7111C62.0125 50.7272 64.627 50.47 67.1492 50.972C69.6714 51.474 71.9881 52.7126 73.8064 54.5313C75.6246 56.35 76.8627 58.667 77.3641 61.1894C77.8655 63.7117 77.6077 66.3261 76.6232 68.7019C75.6387 71.0777 73.9718 73.1082 71.8333 74.5366C69.6948 75.9651 67.1808 76.7273 64.6091 76.7269C61.1608 76.7263 57.8539 75.356 55.4159 72.9174C52.9779 70.4788 51.6084 67.1716 51.6087 63.7233ZM44.5788 63.7233C44.5788 67.685 45.7536 71.5576 47.9545 74.8516C50.1555 78.1456 53.2838 80.7129 56.9438 82.2289C60.6039 83.745 64.6313 84.1416 68.5168 83.3688C72.4023 82.5959 75.9714 80.6882 78.7726 77.8869C81.5739 75.0856 83.4816 71.5166 84.2545 67.6311C85.0274 63.7456 84.6307 59.7181 83.1146 56.0581C81.5986 52.398 79.0313 49.2697 75.7373 47.0688C72.4433 44.8678 68.5707 43.6931 64.6091 43.6931C61.9786 43.6929 59.3739 44.2109 56.9437 45.2175C54.5134 46.2241 52.3052 47.6995 50.4452 49.5595C48.5852 51.4195 47.1098 53.6277 46.1033 56.0579C45.0967 58.4882 44.5787 61.0929 44.5788 63.7233ZM80.7513 42.8994C80.7509 43.8252 81.025 44.7303 81.539 45.5002C82.053 46.2702 82.7837 46.8705 83.6389 47.2251C84.494 47.5798 85.4351 47.6729 86.3431 47.4927C87.2512 47.3125 88.0854 46.867 88.7403 46.2127C89.3952 45.5584 89.8414 44.7245 90.0224 43.8167C90.2034 42.9088 90.1111 41.9676 89.7572 41.1121C89.4033 40.2567 88.8037 39.5254 88.0342 39.0107C87.2647 38.4961 86.3598 38.2211 85.4341 38.2207C84.1932 38.2213 83.0032 38.7143 82.1256 39.5916C81.248 40.4688 80.7544 41.6585 80.7533 42.8994M48.8519 95.4755C46.3783 95.4483 43.9279 94.9957 41.6079 94.1373C39.9254 93.4888 38.3974 92.4952 37.1221 91.2204C35.8468 89.9457 34.8526 88.4181 34.2034 86.7358C33.3446 84.4159 32.8919 81.9654 32.8651 79.4919C32.6757 75.3804 32.6387 74.1451 32.6387 63.7285C32.6387 53.3119 32.6799 52.0797 32.8651 47.9641C32.8952 45.4908 33.3477 43.0409 34.2034 40.7201C34.8518 39.0371 35.8458 37.5087 37.1211 36.2333C38.3965 34.958 39.9249 33.964 41.6079 33.3156C43.9278 32.4568 46.3783 32.0042 48.8519 31.9774C52.9634 31.788 54.1986 31.7509 64.6111 31.7509C75.0236 31.7509 76.2599 31.791 80.3755 31.9784C82.8488 32.0084 85.2988 32.461 87.6195 33.3166C89.3025 33.9651 90.8309 34.9591 92.1063 36.2344C93.3816 37.5098 94.3755 39.0382 95.0241 40.7212C95.8828 43.0411 96.3354 45.4916 96.3623 47.9651C96.5517 52.0828 96.5887 53.3119 96.5887 63.7295C96.5887 74.1472 96.5507 75.3783 96.3623 79.4939C96.3335 81.9673 95.8808 84.4174 95.0241 86.7379C94.3749 88.4201 93.3806 89.9478 92.1053 91.2225C90.8301 92.4973 89.302 93.4908 87.6195 94.1393C85.2996 94.9981 82.8491 95.4508 80.3755 95.4776C76.2641 95.667 75.0288 95.7041 64.6111 95.7041C54.1935 95.7041 52.9623 95.666 48.8519 95.4776M48.5287 24.9537C45.292 25.0173 42.0897 25.6299 39.0581 26.7654C36.4665 27.7674 34.113 29.2999 32.1483 31.2646C30.1836 33.2293 28.6511 35.5829 27.6491 38.1744C26.5138 41.206 25.9012 44.4084 25.8374 47.645C25.6449 51.8038 25.6016 53.1338 25.6016 63.7275C25.6016 74.3211 25.6459 75.6501 25.8374 79.81C25.9011 83.0466 26.5137 86.2489 27.6491 89.2805C28.6512 91.872 30.1837 94.2256 32.1483 96.1902C34.113 98.1549 36.4666 99.6874 39.0581 100.689C42.0898 101.824 45.2921 102.437 48.5287 102.501C52.6895 102.691 54.0175 102.737 64.6111 102.737C75.2048 102.737 76.5338 102.693 80.6936 102.501C83.9302 102.437 87.1325 101.825 90.1642 100.689C92.7557 99.6874 95.1092 98.1549 97.0739 96.1902C99.0386 94.2256 100.571 91.872 101.573 89.2805C102.71 86.2493 103.323 83.0468 103.385 79.81C103.574 75.6481 103.618 74.3211 103.618 63.7275C103.618 53.1338 103.573 51.8048 103.385 47.645C103.321 44.4084 102.709 41.206 101.573 38.1744C100.571 35.5834 99.0391 33.2302 97.075 31.2655C95.1109 29.3009 92.7581 27.7681 90.1673 26.7654C87.1359 25.6292 83.9334 25.0166 80.6967 24.9537C76.5369 24.7633 75.2079 24.718 64.6163 24.718C54.0247 24.718 52.6926 24.7622 48.5307 24.9537" fill="white"/>
</g>
<defs>
<radialGradient id="paint0_radial_2_55" cx="0" cy="0" r="1" gradientUnits="userSpaceOnUse" gradientTransform="translate(18.7951 113.7) scale(133.311)">
<stop offset="0.09" stop-color="#FA8F21"/>
<stop offset="0.78" stop-color="#D82D7E"/>
</radialGradient>
<radialGradient id="paint1_radial_2_55" cx="0" cy="0" r="1" gradientUnits="userSpaceOnUse" gradientTransform="translate(84.73 110.328) scale(117.315)">
<stop offset="0.64" stop-color="#8C3AAA" stop-opacity="0"/>
<stop offset="1" stop-color="#8C3AAA"/>
</radialGradient>
<clipPath id="clip0_2_55">
<rect width="105" height="105" fill="white" transform="translate(12 11)"/>
</clipPath>
</defs>
</svg>
