<svg width="128" height="128" viewBox="0 0 128 128" fill="none" xmlns="http://www.w3.org/2000/svg">
<rect width="128" height="128" rx="29" fill="white" fill-opacity="0.3"/>
<g clip-path="url(#clip0_2_43)">
<path d="M63.4937 13C35.0592 13 12 36.1492 12 64.706C11.9884 75.5438 15.383 86.1113 21.7041 94.9148C28.0252 103.718 36.9531 110.313 47.2261 113.766C49.8011 114.243 50.741 112.646 50.741 111.275C50.741 110.045 50.6959 106.794 50.6701 102.481C36.3467 105.603 33.3211 95.5481 33.3211 95.5481C30.9842 89.5741 27.6046 87.984 27.6046 87.984C22.9245 84.7781 27.9522 84.8425 27.9522 84.8425C33.1215 85.2094 35.8381 90.1727 35.8381 90.1727C40.4345 98.0716 47.8956 95.7927 50.8311 94.4666C51.2946 91.1255 52.6272 88.8466 54.1013 87.5527C42.6683 86.2459 30.6431 81.8104 30.6431 62.0022C30.6431 56.3566 32.6516 51.7409 35.9476 48.123C35.4132 46.8162 33.6494 41.5567 36.4497 34.4433C36.4497 34.4433 40.7757 33.0528 50.6122 39.7414C54.8143 38.593 59.1504 38.0085 63.5065 38.0032C67.8629 38.0119 72.1988 38.5985 76.4009 39.7478C86.2309 33.0592 90.5505 34.4497 90.5505 34.4497C93.3573 41.5696 91.5934 46.8226 91.0655 48.1294C94.368 51.7473 96.3571 56.363 96.3571 62.0087C96.3571 81.8684 84.319 86.2394 72.8474 87.5205C74.6949 89.117 76.3429 92.2714 76.3429 97.0931C76.3429 104.007 76.2786 109.582 76.2786 111.275C76.2786 112.659 77.2056 114.268 79.8192 113.76C90.0821 110.298 98.999 103.701 105.311 94.8998C111.624 86.0984 115.013 75.537 115 64.706C115 36.1492 91.941 13 63.4937 13Z" fill="black"/>
</g>
<defs>
<clipPath id="clip0_2_43">
<rect width="103" height="103" fill="white" transform="translate(12 13)"/>
</clipPath>
</defs>
</svg>
