<svg width="128" height="128" viewBox="0 0 128 128" fill="none" xmlns="http://www.w3.org/2000/svg">
<rect width="128" height="128" rx="29" fill="white" fill-opacity="0.3"/>
<g clip-path="url(#clip0_2_26)">
<path d="M63.5 116C91.9427 116 115 92.9427 115 64.5C115 36.0573 91.9427 13 63.5 13C35.0573 13 12 36.0573 12 64.5C12 92.9427 35.0573 116 63.5 116Z" fill="url(#paint0_linear_2_26)"/>
<path d="M31.1799 67.0192C37.2002 63.7031 43.9206 60.9354 50.1997 58.1535C61.0023 53.597 71.8477 49.1195 82.8026 44.951C84.9339 44.2408 88.7638 43.5464 89.1393 46.705C88.9333 51.1761 88.0878 55.621 87.5076 60.0659C86.0351 69.8406 84.3326 79.5818 82.673 89.3243C82.1009 92.5693 78.0359 94.2495 75.4347 92.1727C69.1835 87.9497 62.8841 83.7688 56.7127 79.4479C54.6914 77.3939 56.566 74.4438 58.371 72.9769C63.5197 67.9029 68.98 63.5919 73.8597 58.2556C75.1759 55.0772 71.2868 57.7561 70.004 58.5771C62.9554 63.4344 56.0793 68.5883 48.6478 72.8572C44.8519 74.9468 40.4276 73.161 36.6333 71.9946C33.2313 70.5865 28.2461 69.1672 31.1795 67.0197L31.1799 67.0192Z" fill="white"/>
</g>
<defs>
<linearGradient id="paint0_linear_2_26" x1="80.671" y1="30.1701" x2="54.921" y2="90.25" gradientUnits="userSpaceOnUse">
<stop stop-color="#37AEE2"/>
<stop offset="1" stop-color="#1E96C8"/>
</linearGradient>
<clipPath id="clip0_2_26">
<rect width="103" height="103" fill="white" transform="translate(12 13)"/>
</clipPath>
</defs>
</svg>
