<svg width="128" height="128" viewBox="0 0 128 128" fill="none" xmlns="http://www.w3.org/2000/svg">
<rect width="128" height="128" rx="29" fill="white" fill-opacity="0.3"/>
<g clip-path="url(#clip0_3_2)">
<path d="M80.3847 62.9803C71.2472 58.0972 62.4979 53.608 53.5546 48.9209V76.9602C62.9657 71.8442 72.8853 67.1589 80.4235 62.9803H80.3847Z" fill="white"/>
<path d="M80.3846 62.9803C71.2471 58.0972 53.5546 48.9209 53.5546 48.9209L77.1434 64.7756C77.1434 64.7756 72.8465 67.1589 80.3846 62.9803Z" fill="#E8E0E0"/>
<path d="M55.2741 98.9101C36.2947 98.5607 29.8123 98.2463 25.8278 97.4254C23.132 96.88 20.7894 95.6689 19.0717 93.9124C17.7442 92.583 16.6884 90.5547 15.8693 87.7406C15.1667 85.3962 14.8931 83.4455 14.503 78.6808C13.9058 67.9273 13.7634 59.1355 14.503 49.3121C15.1131 43.8873 15.409 37.4474 19.4618 33.6903C21.3755 31.932 23.6016 30.8004 26.1014 30.3326C30.0064 29.5912 46.6432 29.0051 63.8662 29.0051C81.0503 29.0051 97.7241 29.5912 101.633 30.3326C104.756 30.9187 107.684 32.6752 109.404 34.9402C113.102 40.757 113.167 47.9901 113.542 53.6479C113.697 56.3436 113.697 71.6511 113.542 74.3468C112.958 83.2884 112.488 86.4519 111.16 89.7319C110.339 91.8028 109.639 92.8955 108.426 94.1066C106.524 95.9702 104.098 97.2099 101.474 97.6602C85.0496 98.8953 71.103 99.1634 55.2741 98.9101ZM80.4254 62.9813C71.2879 58.0983 62.5386 53.5702 53.5953 48.8831V76.9243C63.0064 71.8082 72.9279 67.1211 80.4642 62.9425L80.4254 62.9813Z" fill="#CD201F"/>
</g>
<defs>
<clipPath id="clip0_3_2">
<rect width="99.6583" height="70" fill="white" transform="translate(14 29)"/>
</clipPath>
</defs>
</svg>
